<svg width="456" height="461" viewBox="0 0 456 461" fill="none" xmlns="http://www.w3.org/2000/svg">
<rect x="6" y="46" width="440.238" height="409" rx="24" fill="#009E01" stroke="black" stroke-width="12"/>
<rect x="9.76172" y="6" width="440.238" height="409" rx="24" fill="#200B75" stroke="black" stroke-width="12"/>
<path d="M289.061 319.917L224.014 225.409L214.75 211.956L139.27 102.29H171.738L232.78 190.98L242.042 204.433L321.529 319.917H289.061ZM334.951 310.686L253.024 191.661L243.761 178.199L185.155 93.0566L180.298 86.0006H108.283L125.846 111.522L203.769 224.742L213.032 238.189L275.643 329.159L280.5 336.207H352.515L334.951 310.686Z" fill="#009E01"/>
<path d="M214.748 211.956L224.012 225.409L213.031 238.189L128.777 336.207H108L203.768 224.742L214.748 211.956Z" fill="#009E01"/>
<path d="M343.845 85.9995L253.023 191.66L242.042 204.432L232.779 190.978L243.76 178.198L305.282 106.591L323.068 85.9995H343.845Z" fill="#009E01"/>
</svg>
