<svg width="456" height="461" viewBox="0 0 456 461" fill="none" xmlns="http://www.w3.org/2000/svg">
<rect x="6" y="46" width="440.238" height="409" rx="24" fill="#009E01" stroke="black" stroke-width="12"/>
<rect x="9.76172" y="6" width="440.238" height="409" rx="24" fill="#200B75" stroke="black" stroke-width="12"/>
<path d="M356.5 111.516C355.59 108.841 354.504 108.138 352.807 107.469C349.096 106.097 342.809 108.173 342.809 108.173C342.809 108.173 120.259 187.978 107.545 196.81C104.807 198.71 103.89 199.836 103.435 201.138C101.237 207.401 108.084 210.181 108.084 210.181L165.446 228.83C165.446 228.83 167.584 229.147 168.346 228.654C181.395 220.421 299.636 145.964 306.455 143.466C307.531 143.149 308.329 143.501 308.117 144.24C305.386 153.811 202.689 244.841 202.689 244.841C202.689 244.841 202.298 245.333 202.051 245.896L201.916 245.826L196.565 302.583C196.565 302.583 194.321 319.966 211.752 302.583C224.05 290.303 235.949 280.028 241.904 275.067C261.628 288.649 282.854 303.674 292.016 311.521C296.616 315.462 300.465 316.095 303.633 315.989C312.329 315.673 314.756 306.137 314.756 306.137C314.756 306.137 355.312 143.325 356.666 121.509C356.8 119.362 356.984 118.025 356.998 116.547C357.023 114.506 356.832 112.466 356.5 111.516Z" fill="#009E01"/>
</svg>
